<mxfile host="app.diagrams.net" modified="2023-12-26T14:30:25.866Z" agent="Mozilla/5.0 (Windows NT 10.0; Win64; x64) AppleWebKit/537.36 (KHTML, like Gecko) Chrome/120.0.0.0 Safari/537.36" etag="na09oXWoM7TA8GGzd2kf" version="22.1.11" type="github">
  <diagram id="prtHgNgQTEPvFCAcTncT" name="Page-1">
    <mxGraphModel dx="1050" dy="557" grid="1" gridSize="10" guides="1" tooltips="1" connect="1" arrows="1" fold="1" page="1" pageScale="1" pageWidth="827" pageHeight="1169" math="0" shadow="0">
      <root>
        <mxCell id="0" />
        <mxCell id="1" parent="0" />
        <mxCell id="hHGSjHFr2L57g3HqUqK1-1" value="&lt;b&gt;管理员&lt;/b&gt;" style="shape=umlActor;verticalLabelPosition=bottom;verticalAlign=top;html=1;" vertex="1" parent="1">
          <mxGeometry x="170" y="240" width="30" height="60" as="geometry" />
        </mxCell>
        <mxCell id="hHGSjHFr2L57g3HqUqK1-3" value="" style="endArrow=open;endFill=1;endSize=12;html=1;rounded=0;exitX=1;exitY=0.3333333333333333;exitDx=0;exitDy=0;exitPerimeter=0;entryX=0;entryY=0.5;entryDx=0;entryDy=0;" edge="1" parent="1" source="hHGSjHFr2L57g3HqUqK1-1" target="hHGSjHFr2L57g3HqUqK1-4">
          <mxGeometry width="160" relative="1" as="geometry">
            <mxPoint x="200" y="224" as="sourcePoint" />
            <mxPoint x="340" y="174" as="targetPoint" />
          </mxGeometry>
        </mxCell>
        <mxCell id="hHGSjHFr2L57g3HqUqK1-4" value="用户信息管理" style="ellipse;whiteSpace=wrap;html=1;" vertex="1" parent="1">
          <mxGeometry x="290" y="124" width="140" height="70" as="geometry" />
        </mxCell>
        <mxCell id="hHGSjHFr2L57g3HqUqK1-8" value="" style="endArrow=block;dashed=1;endFill=0;endSize=12;html=1;rounded=0;exitX=1;exitY=0.5;exitDx=0;exitDy=0;" edge="1" parent="1" source="hHGSjHFr2L57g3HqUqK1-4">
          <mxGeometry width="160" relative="1" as="geometry">
            <mxPoint x="430" y="115" as="sourcePoint" />
            <mxPoint x="520" y="60" as="targetPoint" />
            <Array as="points">
              <mxPoint x="520" y="60" />
            </Array>
          </mxGeometry>
        </mxCell>
        <mxCell id="hHGSjHFr2L57g3HqUqK1-10" value="个人信息管理" style="html=1;whiteSpace=wrap;" vertex="1" parent="1">
          <mxGeometry x="520" y="26" width="110" height="50" as="geometry" />
        </mxCell>
        <mxCell id="hHGSjHFr2L57g3HqUqK1-12" value="学生信息管理" style="html=1;whiteSpace=wrap;" vertex="1" parent="1">
          <mxGeometry x="520" y="100" width="110" height="50" as="geometry" />
        </mxCell>
        <mxCell id="hHGSjHFr2L57g3HqUqK1-14" value="" style="endArrow=block;dashed=1;endFill=0;endSize=12;html=1;rounded=0;exitX=1;exitY=0.5;exitDx=0;exitDy=0;entryX=0;entryY=0.5;entryDx=0;entryDy=0;" edge="1" parent="1" source="hHGSjHFr2L57g3HqUqK1-4" target="hHGSjHFr2L57g3HqUqK1-12">
          <mxGeometry width="160" relative="1" as="geometry">
            <mxPoint x="430" y="115" as="sourcePoint" />
            <mxPoint x="520" y="140" as="targetPoint" />
          </mxGeometry>
        </mxCell>
        <mxCell id="hHGSjHFr2L57g3HqUqK1-15" value="教师信息管理" style="html=1;whiteSpace=wrap;" vertex="1" parent="1">
          <mxGeometry x="520" y="170" width="110" height="50" as="geometry" />
        </mxCell>
        <mxCell id="hHGSjHFr2L57g3HqUqK1-16" value="" style="endArrow=block;dashed=1;endFill=0;endSize=12;html=1;rounded=0;exitX=1;exitY=0.5;exitDx=0;exitDy=0;entryX=0;entryY=0.5;entryDx=0;entryDy=0;" edge="1" parent="1" source="hHGSjHFr2L57g3HqUqK1-4" target="hHGSjHFr2L57g3HqUqK1-15">
          <mxGeometry width="160" relative="1" as="geometry">
            <mxPoint x="430" y="115" as="sourcePoint" />
            <mxPoint x="510" y="190" as="targetPoint" />
          </mxGeometry>
        </mxCell>
        <mxCell id="hHGSjHFr2L57g3HqUqK1-17" value="课程信息管理" style="ellipse;whiteSpace=wrap;html=1;" vertex="1" parent="1">
          <mxGeometry x="290" y="240" width="140" height="70" as="geometry" />
        </mxCell>
        <mxCell id="hHGSjHFr2L57g3HqUqK1-18" value="" style="endArrow=open;endFill=1;endSize=12;html=1;rounded=0;entryX=0;entryY=0.5;entryDx=0;entryDy=0;" edge="1" parent="1" target="hHGSjHFr2L57g3HqUqK1-17">
          <mxGeometry width="160" relative="1" as="geometry">
            <mxPoint x="200" y="260" as="sourcePoint" />
            <mxPoint x="490" y="290" as="targetPoint" />
          </mxGeometry>
        </mxCell>
        <mxCell id="hHGSjHFr2L57g3HqUqK1-19" value="增改课程信息" style="html=1;whiteSpace=wrap;" vertex="1" parent="1">
          <mxGeometry x="520" y="232" width="110" height="50" as="geometry" />
        </mxCell>
        <mxCell id="hHGSjHFr2L57g3HqUqK1-20" value="删查课程信息" style="html=1;whiteSpace=wrap;" vertex="1" parent="1">
          <mxGeometry x="520" y="292" width="110" height="50" as="geometry" />
        </mxCell>
        <mxCell id="hHGSjHFr2L57g3HqUqK1-21" value="" style="endArrow=block;dashed=1;endFill=0;endSize=12;html=1;rounded=0;exitX=1;exitY=0.5;exitDx=0;exitDy=0;entryX=0;entryY=0.5;entryDx=0;entryDy=0;" edge="1" parent="1" source="hHGSjHFr2L57g3HqUqK1-17" target="hHGSjHFr2L57g3HqUqK1-19">
          <mxGeometry width="160" relative="1" as="geometry">
            <mxPoint x="440" y="291" as="sourcePoint" />
            <mxPoint x="490" y="281" as="targetPoint" />
          </mxGeometry>
        </mxCell>
        <mxCell id="hHGSjHFr2L57g3HqUqK1-22" value="" style="endArrow=block;dashed=1;endFill=0;endSize=12;html=1;rounded=0;entryX=0;entryY=0.5;entryDx=0;entryDy=0;exitX=1;exitY=0.5;exitDx=0;exitDy=0;" edge="1" parent="1" source="hHGSjHFr2L57g3HqUqK1-17" target="hHGSjHFr2L57g3HqUqK1-20">
          <mxGeometry width="160" relative="1" as="geometry">
            <mxPoint x="330" y="281" as="sourcePoint" />
            <mxPoint x="490" y="281" as="targetPoint" />
          </mxGeometry>
        </mxCell>
        <mxCell id="hHGSjHFr2L57g3HqUqK1-23" value="实验管理" style="ellipse;whiteSpace=wrap;html=1;" vertex="1" parent="1">
          <mxGeometry x="290" y="350" width="140" height="70" as="geometry" />
        </mxCell>
        <mxCell id="hHGSjHFr2L57g3HqUqK1-25" value="" style="endArrow=open;endFill=1;endSize=12;html=1;rounded=0;exitX=1;exitY=0.3333333333333333;exitDx=0;exitDy=0;exitPerimeter=0;entryX=0;entryY=0.5;entryDx=0;entryDy=0;" edge="1" parent="1" source="hHGSjHFr2L57g3HqUqK1-1" target="hHGSjHFr2L57g3HqUqK1-23">
          <mxGeometry width="160" relative="1" as="geometry">
            <mxPoint x="330" y="290" as="sourcePoint" />
            <mxPoint x="490" y="290" as="targetPoint" />
          </mxGeometry>
        </mxCell>
        <mxCell id="hHGSjHFr2L57g3HqUqK1-26" value="增改实验资源" style="html=1;whiteSpace=wrap;" vertex="1" parent="1">
          <mxGeometry x="520" y="350" width="110" height="50" as="geometry" />
        </mxCell>
        <mxCell id="hHGSjHFr2L57g3HqUqK1-27" value="下载实验资源" style="html=1;whiteSpace=wrap;" vertex="1" parent="1">
          <mxGeometry x="520" y="410" width="110" height="50" as="geometry" />
        </mxCell>
        <mxCell id="hHGSjHFr2L57g3HqUqK1-28" value="" style="endArrow=block;dashed=1;endFill=0;endSize=12;html=1;rounded=0;exitX=1;exitY=0.5;exitDx=0;exitDy=0;entryX=0;entryY=0.5;entryDx=0;entryDy=0;" edge="1" parent="1" source="hHGSjHFr2L57g3HqUqK1-23" target="hHGSjHFr2L57g3HqUqK1-26">
          <mxGeometry width="160" relative="1" as="geometry">
            <mxPoint x="330" y="290" as="sourcePoint" />
            <mxPoint x="490" y="290" as="targetPoint" />
          </mxGeometry>
        </mxCell>
        <mxCell id="hHGSjHFr2L57g3HqUqK1-29" value="" style="endArrow=block;dashed=1;endFill=0;endSize=12;html=1;rounded=0;exitX=1;exitY=0.5;exitDx=0;exitDy=0;entryX=0;entryY=0.5;entryDx=0;entryDy=0;" edge="1" parent="1" source="hHGSjHFr2L57g3HqUqK1-23" target="hHGSjHFr2L57g3HqUqK1-27">
          <mxGeometry width="160" relative="1" as="geometry">
            <mxPoint x="330" y="290" as="sourcePoint" />
            <mxPoint x="490" y="290" as="targetPoint" />
          </mxGeometry>
        </mxCell>
        <mxCell id="hHGSjHFr2L57g3HqUqK1-30" value="作业管理" style="ellipse;whiteSpace=wrap;html=1;" vertex="1" parent="1">
          <mxGeometry x="290" y="470" width="140" height="70" as="geometry" />
        </mxCell>
        <mxCell id="hHGSjHFr2L57g3HqUqK1-31" value="" style="endArrow=open;endFill=1;endSize=12;html=1;rounded=0;exitX=1;exitY=0.3333333333333333;exitDx=0;exitDy=0;exitPerimeter=0;entryX=0;entryY=0.5;entryDx=0;entryDy=0;" edge="1" parent="1" source="hHGSjHFr2L57g3HqUqK1-1" target="hHGSjHFr2L57g3HqUqK1-30">
          <mxGeometry width="160" relative="1" as="geometry">
            <mxPoint x="330" y="290" as="sourcePoint" />
            <mxPoint x="490" y="290" as="targetPoint" />
          </mxGeometry>
        </mxCell>
        <mxCell id="hHGSjHFr2L57g3HqUqK1-33" value="提交" style="html=1;whiteSpace=wrap;" vertex="1" parent="1">
          <mxGeometry x="520" y="480" width="110" height="50" as="geometry" />
        </mxCell>
        <mxCell id="hHGSjHFr2L57g3HqUqK1-34" value="查看" style="html=1;whiteSpace=wrap;" vertex="1" parent="1">
          <mxGeometry x="520" y="540" width="110" height="50" as="geometry" />
        </mxCell>
        <mxCell id="hHGSjHFr2L57g3HqUqK1-35" value="" style="endArrow=block;dashed=1;endFill=0;endSize=12;html=1;rounded=0;exitX=1;exitY=0.5;exitDx=0;exitDy=0;entryX=0;entryY=0.5;entryDx=0;entryDy=0;" edge="1" parent="1" source="hHGSjHFr2L57g3HqUqK1-30" target="hHGSjHFr2L57g3HqUqK1-33">
          <mxGeometry width="160" relative="1" as="geometry">
            <mxPoint x="330" y="490" as="sourcePoint" />
            <mxPoint x="490" y="490" as="targetPoint" />
          </mxGeometry>
        </mxCell>
        <mxCell id="hHGSjHFr2L57g3HqUqK1-36" value="" style="endArrow=block;dashed=1;endFill=0;endSize=12;html=1;rounded=0;entryX=0;entryY=0.5;entryDx=0;entryDy=0;exitX=1;exitY=0.5;exitDx=0;exitDy=0;" edge="1" parent="1" source="hHGSjHFr2L57g3HqUqK1-30" target="hHGSjHFr2L57g3HqUqK1-34">
          <mxGeometry width="160" relative="1" as="geometry">
            <mxPoint x="430" y="500" as="sourcePoint" />
            <mxPoint x="490" y="490" as="targetPoint" />
          </mxGeometry>
        </mxCell>
      </root>
    </mxGraphModel>
  </diagram>
</mxfile>
